<?xml version="1.0" standalone="no"?>
<!DOCTYPE svg PUBLIC "-//W3C//DTD SVG 20010904//EN"
 "http://www.w3.org/TR/2001/REC-SVG-20010904/DTD/svg10.dtd">
<svg version="1.0" xmlns="http://www.w3.org/2000/svg"
 width="204.000000pt" height="740.000000pt" viewBox="0 0 204.000000 740.000000"
 preserveAspectRatio="xMidYMid meet">

<g transform="translate(0.000000,740.000000) scale(0.100000,-0.100000)"
fill="#000000" stroke="none">
<path d="M819 7386 c-70 -25 -139 -94 -139 -140 0 -8 -16 -33 -35 -57 -67 -79
-88 -125 -93 -203 -4 -66 0 -84 48 -229 35 -103 64 -172 84 -199 50 -65 66
-100 66 -146 0 -65 -22 -105 -102 -185 -66 -65 -91 -82 -254 -164 l-180 -92
-27 -83 c-39 -120 -44 -159 -57 -403 -16 -328 -44 -608 -76 -757 -11 -55 -17
-188 -25 -528 -5 -250 -14 -475 -19 -500 l-9 -45 51 -47 52 -46 -17 -94 c-26
-142 -23 -189 15 -267 43 -86 96 -138 185 -181 l73 -35 0 -115 c1 -394 21
-1113 35 -1245 34 -320 77 -574 135 -784 28 -105 26 -127 -25 -227 -44 -86
-47 -89 -86 -96 -61 -11 -128 -53 -134 -86 -3 -15 -10 -40 -16 -57 -43 -120
-35 -177 33 -216 37 -21 56 -24 139 -24 95 0 95 0 195 51 118 60 316 177 338
200 19 19 22 122 5 190 -9 36 -9 58 2 102 22 91 16 245 -12 317 -23 60 -23 61
-27 620 -3 518 8 974 34 1353 6 89 18 100 27 25 3 -26 17 -124 31 -217 50
-332 54 -725 11 -1186 -21 -228 -28 -502 -17 -595 24 -187 65 -394 91 -460 18
-45 30 -97 34 -146 4 -55 13 -91 32 -130 71 -140 145 -231 203 -250 73 -24
255 9 312 57 30 25 30 27 30 123 0 92 -2 101 -28 137 -16 21 -36 45 -46 53
-28 24 -106 193 -106 231 0 19 7 76 15 125 38 232 39 250 40 1090 0 709 3 858
18 1020 10 105 21 191 25 193 4 1 49 29 100 63 140 91 173 148 192 335 10 99
16 121 37 145 27 32 57 515 57 919 0 227 -5 300 -42 665 -62 605 -70 655 -124
796 l-29 76 -93 52 c-52 29 -154 79 -227 112 -152 69 -221 112 -278 174 -37
40 -41 50 -41 96 0 37 10 73 34 128 23 50 44 124 61 215 l27 138 -20 88 c-29
123 -55 173 -116 221 -61 49 -160 100 -235 123 -65 19 -84 19 -132 2z"/>
</g>
</svg>
