<?xml version="1.0" standalone="no"?>
<!DOCTYPE svg PUBLIC "-//W3C//DTD SVG 20010904//EN"
 "http://www.w3.org/TR/2001/REC-SVG-20010904/DTD/svg10.dtd">
<svg version="1.0" xmlns="http://www.w3.org/2000/svg"
 width="446.000000pt" height="1280.000000pt" viewBox="0 0 446.000000 1280.000000"
 preserveAspectRatio="xMidYMid meet">
<g transform="translate(0.000000,1280.000000) scale(0.100000,-0.100000)"
fill="#000000" stroke="none">
<path d="M2324 12594 c-79 -49 -223 -111 -276 -119 -118 -18 -164 -61 -245
-233 -53 -112 -56 -122 -63 -227 -5 -60 -7 -213 -6 -340 4 -283 11 -315 91
-390 40 -38 56 -61 65 -95 6 -25 23 -82 37 -127 24 -72 25 -86 15 -122 -14
-44 -85 -138 -126 -165 -27 -17 -276 -70 -499 -106 -71 -11 -145 -27 -165 -36
-64 -26 -227 -123 -270 -160 -53 -45 -226 -334 -275 -459 -42 -108 -82 -268
-97 -387 -6 -48 -17 -106 -26 -130 -8 -24 -21 -84 -29 -135 -16 -109 -22 -121
-75 -163 -74 -59 -118 -161 -149 -350 -6 -36 -18 -92 -27 -125 -14 -51 -14
-71 -4 -145 25 -180 25 -166 -4 -200 -34 -41 -33 -63 9 -131 23 -37 40 -82 49
-130 10 -49 37 -122 81 -214 37 -77 92 -210 122 -295 145 -411 207 -594 234
-695 23 -85 56 -163 144 -340 63 -126 121 -250 130 -274 22 -64 19 -113 -15
-211 -20 -57 -34 -125 -40 -192 -6 -56 -21 -166 -34 -243 -81 -459 -95 -570
-107 -810 -16 -325 -12 -502 13 -603 20 -80 20 -87 5 -175 -9 -51 -19 -123
-22 -162 -3 -38 -12 -95 -20 -125 -8 -32 -15 -99 -15 -157 0 -97 -3 -112 -55
-275 -49 -152 -60 -203 -91 -418 -43 -296 -42 -379 6 -535 42 -136 60 -223 67
-331 5 -81 3 -100 -22 -177 -26 -83 -27 -89 -15 -171 11 -79 11 -87 -10 -133
-16 -34 -24 -79 -30 -154 -5 -81 -13 -118 -31 -155 -36 -73 -94 -126 -167
-152 -34 -13 -75 -34 -90 -47 -25 -21 -27 -30 -30 -108 -3 -63 0 -92 12 -115
9 -17 68 -78 131 -136 107 -98 121 -107 188 -127 44 -13 92 -36 125 -61 110
-82 251 -124 355 -104 50 9 166 111 202 177 26 49 29 62 27 134 -4 111 11 163
69 241 85 115 86 165 9 262 -47 59 -60 90 -60 143 0 50 17 91 73 172 61 90 72
149 61 337 -14 231 -2 377 47 585 25 107 25 254 -1 387 -25 129 -25 156 0 254
12 43 25 138 30 210 8 115 15 149 54 270 25 76 64 198 86 269 28 91 58 163
101 240 34 61 75 142 91 180 42 99 94 288 102 376 5 47 18 99 37 141 17 38 29
84 29 108 0 67 21 231 36 284 8 27 14 84 14 125 0 83 41 303 60 326 18 22 48
18 64 -8 24 -39 61 -232 97 -512 6 -44 19 -125 30 -181 10 -55 23 -135 29
-177 5 -42 32 -167 59 -279 27 -112 54 -234 61 -273 6 -38 22 -103 36 -143 13
-40 35 -121 49 -180 14 -59 39 -147 55 -197 16 -49 36 -133 45 -185 29 -175
34 -205 40 -260 4 -30 21 -120 37 -200 28 -132 31 -170 38 -420 4 -151 13
-302 20 -335 6 -33 35 -107 63 -164 50 -99 52 -107 51 -180 -1 -42 -5 -108 -9
-148 -6 -55 -3 -83 10 -123 20 -60 17 -93 -18 -175 -66 -154 -62 -361 8 -455
40 -53 81 -139 95 -198 7 -32 23 -63 39 -80 108 -107 397 -153 639 -101 115
24 163 50 226 120 39 44 46 57 46 93 0 60 -25 127 -65 174 -27 31 -47 43 -86
52 -65 16 -131 77 -149 137 -11 36 -11 49 4 85 22 57 28 63 122 136 45 35 95
81 110 104 26 37 29 49 27 111 -1 63 -7 82 -66 206 -69 144 -87 212 -87 333 0
36 -7 85 -16 109 -28 79 -44 177 -50 306 -3 71 -14 166 -24 213 -13 60 -19
123 -18 215 0 102 -5 150 -22 220 -13 55 -25 146 -30 235 -4 80 -17 190 -28
245 -14 70 -24 180 -32 365 -14 325 -27 524 -39 610 -6 36 -22 157 -37 268
-26 202 -26 206 -14 478 6 151 9 282 6 291 -3 10 -10 65 -15 123 -6 58 -18
123 -27 145 -28 68 -15 132 57 270 34 66 74 136 89 155 31 41 104 188 120 245
15 49 100 289 130 365 12 30 50 114 85 185 57 118 67 132 108 157 61 36 75 60
93 164 8 49 26 125 39 169 21 73 45 166 80 315 8 30 23 117 35 194 19 126 20
151 10 275 -28 337 -60 560 -111 771 -12 47 -25 146 -30 221 -10 170 -32 278
-70 349 -16 30 -69 110 -117 178 -48 67 -116 168 -152 223 -52 81 -78 111
-127 146 -83 59 -182 102 -348 152 -389 117 -478 160 -527 255 -11 21 -33 57
-49 79 -24 34 -29 49 -29 101 0 118 29 170 112 200 41 15 51 24 73 71 52 105
71 306 36 386 -16 39 -18 57 -11 154 11 147 -2 251 -42 339 -43 93 -178 284
-253 358 -47 47 -162 108 -203 108 -15 0 -55 -16 -88 -36z m-1164 -3382 c20
-16 24 -31 31 -138 15 -221 11 -664 -7 -746 -8 -40 -19 -121 -23 -180 -8 -99
-12 -112 -56 -200 -68 -133 -107 -327 -106 -525 1 -122 -9 -166 -36 -161 -46
9 -149 465 -164 728 -5 80 -11 181 -14 225 -5 66 -3 90 14 139 12 33 21 78 21
101 0 38 12 88 56 245 9 30 20 73 25 94 14 59 116 298 164 386 12 22 48 49 66
50 4 0 17 -8 29 -18z m2358 -289 c6 -16 13 -44 16 -63 4 -19 20 -61 36 -92 17
-31 30 -67 30 -80 0 -13 10 -39 21 -58 31 -51 44 -162 43 -365 -2 -198 -22
-342 -74 -540 -15 -60 -31 -132 -35 -160 -18 -130 -56 -235 -86 -235 -21 0
-49 36 -49 65 0 17 -48 160 -112 335 -25 67 -28 184 -11 385 7 77 18 203 23
280 21 271 36 333 113 483 41 79 67 93 85 45z"/>
</g>
</svg>
