<?xml version="1.0" standalone="no"?>
<!DOCTYPE svg PUBLIC "-//W3C//DTD SVG 20010904//EN"
 "http://www.w3.org/TR/2001/REC-SVG-20010904/DTD/svg10.dtd">
<svg version="1.0" xmlns="http://www.w3.org/2000/svg"
 width="640.000000pt" height="1280.000000pt" viewBox="0 0 640.000000 1280.000000"
 preserveAspectRatio="xMidYMid meet">
<metadata>
Created by potrace 1.15, written by Peter Selinger 2001-2017
</metadata>
<g transform="translate(0.000000,1280.000000) scale(0.100000,-0.100000)"
fill="#000000" stroke="none">
<path d="M3565 12785 c-27 -8 -61 -15 -74 -15 -57 0 -199 -54 -286 -109 -128
-80 -278 -232 -327 -331 -55 -113 -128 -276 -128 -287 0 -6 -12 -46 -26 -89
-14 -43 -32 -106 -39 -139 -19 -80 -66 -212 -103 -288 -42 -86 -89 -231 -98
-300 -4 -35 -12 -61 -20 -64 -8 -3 -14 -11 -14 -18 0 -8 -16 -44 -35 -81 -23
-43 -35 -81 -35 -106 0 -56 -28 -89 -122 -145 -181 -107 -252 -249 -343 -681
-82 -387 -88 -481 -80 -1132 6 -459 5 -544 -10 -675 -20 -174 -26 -868 -11
-1285 6 -173 5 -268 -3 -325 -10 -73 -15 -83 -51 -120 -45 -46 -50 -76 -23
-133 16 -34 16 -39 -7 -121 -19 -69 -24 -118 -28 -249 l-4 -163 33 -65 c19
-36 49 -84 69 -108 19 -23 53 -68 74 -99 l40 -57 -13 -193 c-11 -188 -19 -236
-60 -407 -12 -47 -25 -143 -31 -213 -6 -71 -15 -137 -21 -148 -5 -11 -19 -102
-29 -203 -18 -172 -41 -298 -60 -321 -5 -5 -13 -39 -20 -74 -11 -59 -40 -162
-91 -316 -11 -33 -29 -91 -40 -129 -11 -38 -26 -80 -33 -95 -16 -31 -42 -161
-52 -254 -4 -37 -10 -67 -15 -67 -4 0 -10 -35 -14 -77 -4 -43 -13 -114 -21
-158 -7 -44 -14 -102 -14 -129 0 -26 -9 -85 -19 -130 -11 -44 -29 -153 -41
-241 -12 -88 -26 -182 -32 -210 -5 -27 -14 -69 -19 -93 -5 -23 -20 -84 -33
-135 -31 -114 -56 -247 -56 -296 0 -26 9 -47 31 -74 17 -20 36 -37 43 -37 7 0
34 -14 59 -31 41 -27 47 -35 47 -65 0 -34 -35 -84 -59 -84 -5 0 -14 -19 -20
-43 -5 -23 -21 -87 -35 -142 -42 -166 -50 -271 -31 -405 10 -63 21 -140 25
-170 4 -30 17 -116 28 -190 14 -91 18 -138 11 -146 -6 -8 -8 -58 -3 -138 8
-145 -8 -129 139 -144 93 -10 534 -7 544 4 3 3 7 114 8 247 l1 242 -34 71
c-19 38 -34 80 -34 92 0 12 -4 22 -10 22 -5 0 -14 19 -20 41 -6 23 -16 49 -21
58 -16 29 -36 281 -27 361 22 214 22 236 0 273 l-20 35 38 6 c50 8 70 36 70
101 0 66 8 92 30 98 19 5 22 15 45 202 8 66 22 147 30 180 8 33 26 118 40 189
16 84 34 146 52 180 62 117 74 145 94 231 12 50 48 161 80 247 32 87 59 161
59 165 0 5 29 100 65 212 35 111 80 275 100 364 37 172 82 324 200 687 41 124
79 253 86 288 6 35 18 69 25 77 7 7 16 32 20 54 4 23 11 44 15 47 5 3 9 20 9
38 0 25 7 38 26 51 21 14 25 22 20 46 -3 16 -2 29 3 29 5 0 11 27 15 60 4 33
11 60 16 60 14 0 50 84 50 118 0 18 7 35 16 40 20 11 40 66 49 135 5 36 20 68
52 114 38 55 54 91 89 202 6 20 33 -17 34 -46 0 -12 5 -23 11 -25 7 -2 17 -68
25 -173 8 -94 18 -197 24 -231 13 -82 13 -138 -5 -269 -10 -76 -11 -129 -6
-170 5 -34 5 -264 0 -525 -9 -448 -20 -673 -39 -756 -5 -21 -10 -160 -10 -309
-1 -148 -5 -337 -10 -420 -13 -237 3 -466 45 -629 39 -154 54 -248 62 -399 7
-127 3 -145 -83 -357 -34 -85 -72 -200 -84 -255 -32 -146 -46 -417 -30 -570
23 -225 29 -290 36 -406 8 -132 7 -130 102 -155 41 -11 58 -12 68 -3 8 7 25 8
41 4 49 -13 547 -5 559 8 6 7 19 55 29 107 10 52 22 105 28 117 8 18 6 27 -6
41 -10 10 -17 30 -17 45 0 34 -15 73 -39 98 -11 12 -17 27 -14 35 4 10 -3 14
-22 14 -19 0 -28 6 -32 21 -4 15 -12 20 -28 17 -21 -4 -24 2 -44 86 -16 71
-21 118 -19 211 1 66 -2 148 -6 181 -10 71 5 176 35 243 15 35 17 46 7 54 -11
7 -10 10 0 14 19 7 119 96 140 124 18 23 36 60 62 126 6 18 18 38 26 44 11 9
14 50 14 188 0 97 5 219 10 271 6 52 17 167 25 255 9 88 20 192 25 230 5 39
13 111 19 160 6 50 15 104 20 120 5 17 12 62 16 100 3 39 10 88 15 110 14 67
30 246 45 535 24 436 45 718 60 805 3 22 2 51 -3 65 -7 18 -4 33 9 58 13 22
19 53 19 95 1 85 27 323 41 372 7 22 12 64 11 94 -1 33 4 61 13 74 10 14 15
45 15 86 0 71 18 193 30 201 5 3 10 34 13 70 2 36 7 72 9 80 16 47 58 289 52
304 -3 9 0 24 8 34 30 36 42 71 30 85 -9 11 -6 56 14 188 14 96 25 209 24 252
-1 52 2 77 10 77 6 0 10 8 8 18 -5 34 16 23 30 -15 17 -49 31 -142 42 -273 4
-58 12 -119 18 -136 5 -17 13 -60 17 -95 4 -35 14 -72 22 -81 13 -15 13 -19
-9 -42 -12 -13 -34 -26 -48 -28 -17 -2 -31 -15 -44 -41 -17 -35 -19 -48 -15
-102 1 -11 -2 -34 -6 -51 -9 -40 23 -74 70 -74 17 0 36 -5 42 -11 7 -7 28 -9
55 -5 23 3 59 7 79 8 21 2 45 10 55 19 11 8 31 20 46 27 16 6 50 28 78 49 38
28 50 44 50 64 0 15 12 47 26 73 17 31 24 55 20 70 -4 18 -1 25 15 29 18 5 21
11 17 44 -3 21 2 54 10 73 8 21 12 53 10 82 -5 43 -57 176 -114 288 -32 64
-74 197 -74 236 0 19 -15 82 -34 141 -30 94 -73 244 -121 418 -7 28 -27 115
-43 195 -132 629 -165 769 -205 848 -7 15 -21 42 -30 60 -9 19 -17 38 -17 43
0 5 -15 42 -33 81 -19 40 -39 89 -45 108 -44 146 -45 149 -82 380 -11 68 -24
138 -29 155 -6 16 -15 62 -22 100 -6 39 -18 95 -26 125 -9 34 -18 144 -24 285
-10 259 -20 393 -43 575 -9 69 -16 149 -16 178 0 107 -72 203 -207 278 -32 17
-53 36 -53 46 0 9 -4 20 -10 23 -5 3 -10 19 -10 36 0 16 -5 38 -12 48 -12 19
-8 33 21 81 5 8 16 31 25 50 8 19 26 46 40 59 14 13 28 39 32 57 3 18 17 46
30 61 18 21 24 40 24 73 0 49 13 72 36 63 14 -5 38 42 29 57 -3 4 5 27 17 50
18 33 20 43 9 50 -9 5 -12 17 -8 31 3 12 1 31 -4 42 -9 16 -5 24 25 52 32 29
36 38 36 82 0 27 -5 54 -12 61 -13 13 -12 79 1 97 9 11 21 71 25 120 2 17 6
66 10 110 8 84 -7 243 -26 278 -5 11 -10 58 -9 106 1 59 -4 95 -14 115 -8 15
-15 33 -15 38 0 13 -65 94 -123 151 -34 34 -56 47 -76 47 -16 0 -34 7 -41 15
-7 8 -18 15 -25 15 -7 0 -15 7 -18 15 -4 8 -25 24 -49 37 -36 18 -62 23 -153
25 -73 1 -127 -3 -160 -12z m-1142 -4047 c10 -5 17 -32 22 -80 4 -40 13 -107
20 -148 13 -76 9 -131 -15 -235 -6 -27 -12 -107 -14 -176 -1 -80 -6 -132 -14
-141 -6 -8 -18 -41 -26 -74 -7 -32 -22 -79 -31 -104 -10 -25 -31 -83 -47 -130
-17 -47 -35 -91 -40 -98 -6 -7 -14 -29 -19 -50 -4 -20 -12 -55 -18 -77 -6 -22
-11 -70 -11 -107 0 -41 -4 -68 -11 -68 -6 0 -8 16 -5 43 3 23 8 69 11 102 4
33 15 103 25 155 25 130 31 203 40 505 8 261 27 453 54 555 8 30 18 78 22 105
4 28 11 61 17 75 10 25 10 25 17 -9 5 -19 15 -38 23 -43z"/>
</g>
</svg>
