<?xml version="1.0" standalone="no"?>
<!DOCTYPE svg PUBLIC "-//W3C//DTD SVG 20010904//EN"
 "http://www.w3.org/TR/2001/REC-SVG-20010904/DTD/svg10.dtd">
<svg version="1.0" xmlns="http://www.w3.org/2000/svg"
 width="360.000000pt" height="540.000000pt" viewBox="0 0 360.000000 540.000000"
 preserveAspectRatio="xMidYMid meet">

<g transform="translate(0.000000,540.000000) scale(0.100000,-0.100000)"
fill="#000000" stroke="none">
<path d="M1720 5199 c-19 -10 -40 -19 -46 -19 -26 0 -93 -93 -120 -163 -14
-40 -42 -112 -60 -160 -42 -108 -42 -146 -5 -214 29 -53 29 -53 10 -77 -11
-14 -35 -34 -54 -46 -32 -20 -66 -62 -48 -59 29 5 34 -2 19 -23 -9 -13 -16
-43 -16 -69 0 -41 -5 -51 -40 -87 -22 -22 -40 -46 -39 -53 0 -8 6 -5 16 9 8
12 19 22 24 22 16 0 9 -34 -11 -60 -25 -33 -25 -72 1 -95 20 -19 20 -19 11 5
-5 14 -6 34 -2 45 9 24 58 71 65 63 3 -3 14 -34 24 -70 l18 -65 -39 -41 c-29
-32 -38 -49 -37 -74 1 -22 3 -26 6 -11 4 21 56 53 86 53 10 0 23 -20 35 -51
17 -47 18 -58 6 -133 -27 -167 -33 -186 -83 -270 -58 -95 -103 -204 -127 -302
-23 -92 -23 -242 0 -317 23 -79 73 -341 86 -452 31 -277 -24 -1128 -100 -1553
-55 -304 -145 -543 -227 -598 -17 -11 -69 -34 -115 -50 -79 -27 -90 -29 -242
-27 -87 1 -156 -1 -153 -3 9 -10 262 -53 350 -60 71 -5 104 -3 163 12 72 17
76 17 128 0 36 -12 67 -16 97 -12 151 20 172 19 223 -8 56 -30 83 -32 152 -11
63 19 98 19 114 0 18 -22 141 -19 253 6 74 17 105 19 162 13 119 -14 371 -9
462 9 59 12 116 15 195 12 108 -4 110 -4 32 5 -99 10 -174 41 -215 87 -69 79
-272 549 -383 887 -80 241 -193 687 -220 861 -23 153 -38 367 -34 500 3 112 4
119 25 125 30 7 113 85 113 107 0 10 9 33 20 50 16 27 18 38 9 60 -14 35 -4
240 17 361 9 51 18 178 21 306 5 214 6 219 29 239 43 37 48 97 15 180 -13 33
-6 35 20 5 l20 -23 -10 22 c-6 12 -16 25 -21 28 -13 8 -13 25 0 25 15 0 33
-41 41 -90 l6 -45 2 47 c1 31 -7 63 -21 93 -20 41 -21 50 -10 103 7 32 11 80
10 108 l-1 49 -7 -45 c-6 -36 -7 -39 -8 -14 -3 44 -21 94 -49 132 -14 18 -22
39 -20 46 3 8 1 31 -4 52 -13 54 -17 84 -11 84 3 0 17 -10 31 -22 14 -13 -6
11 -45 52 -96 101 -120 152 -140 292 -22 162 -73 263 -158 313 -54 32 -143 34
-196 4z m-233 -451 c-3 -7 -5 -2 -5 12 0 14 2 19 5 13 2 -7 2 -19 0 -25z m813
-592 c-6 -24 -9 -55 -6 -67 6 -22 6 -22 -5 -5 -9 14 -9 31 1 73 6 30 14 52 17
49 3 -3 0 -25 -7 -50z m-194 -351 c-4 -82 -6 -208 -6 -280 1 -71 0 -128 -3
-125 -18 19 -67 161 -77 223 -10 68 -9 80 10 133 12 33 34 98 48 146 15 49 29
80 31 70 2 -9 0 -84 -3 -167z m191 93 c-3 -8 -6 -5 -6 6 -1 11 2 17 5 13 3 -3
4 -12 1 -19z m-21 -54 c-4 -14 -9 -24 -12 -21 -3 2 -2 17 2 31 3 15 9 25 11
22 3 -3 2 -17 -1 -32z m-159 -1010 c-6 -53 -21 -74 -55 -74 l-26 0 22 20 c12
12 22 29 22 40 0 10 4 31 10 45 15 40 33 20 27 -31z"/>
<path d="M1355 4420 c-25 -26 -26 -28 -6 -23 12 3 26 14 32 25 17 31 5 30 -26
-2z"/>
<path d="M2290 4379 c0 -4 7 -22 15 -40 8 -19 14 -27 14 -19 0 14 -28 72 -29
59z"/>
</g>
</svg>
