<?xml version="1.0" standalone="no"?>
<!DOCTYPE svg PUBLIC "-//W3C//DTD SVG 20010904//EN"
 "http://www.w3.org/TR/2001/REC-SVG-20010904/DTD/svg10.dtd">
<svg version="1.0" xmlns="http://www.w3.org/2000/svg"
 width="640.000000pt" height="1280.000000pt" viewBox="0 0 640.000000 1280.000000"
 preserveAspectRatio="xMidYMid meet">
<g transform="translate(0.000000,1280.000000) scale(0.100000,-0.100000)"
fill="#000000" stroke="none">
<path d="M2101 11932 c-68 -21 -86 -107 -77 -372 4 -107 11 -220 16 -250 5
-30 14 -113 19 -185 14 -167 42 -323 91 -505 22 -80 48 -201 59 -270 12 -69
30 -161 40 -205 28 -117 69 -354 81 -473 7 -76 7 -143 -2 -250 -19 -228 -17
-480 6 -577 29 -128 137 -456 210 -639 98 -246 101 -260 100 -466 -1 -183 -10
-245 -72 -525 -24 -108 -27 -138 -26 -310 1 -157 4 -205 22 -276 46 -189 155
-442 432 -1004 161 -327 218 -488 235 -663 l8 -71 -48 -53 c-51 -57 -140 -202
-177 -288 -25 -60 -24 -43 -31 -659 -2 -255 -4 -275 -21 -285 -94 -55 -119
-107 -122 -256 -1 -63 -12 -173 -24 -244 -20 -121 -20 -132 -6 -203 9 -41 16
-92 16 -114 0 -58 18 -89 52 -89 18 0 28 -5 28 -14 0 -26 29 -47 49 -36 22 11
31 4 31 -26 0 -35 26 -55 55 -44 20 8 27 6 35 -11 17 -31 64 -22 68 14 4 33
15 34 36 3 21 -33 52 -41 81 -22 34 22 40 71 21 155 -9 38 -16 103 -16 144 0
49 -7 94 -20 133 -19 53 -20 66 -9 122 6 34 9 81 5 105 -4 26 0 61 9 91 9 28
15 87 15 138 0 156 39 243 54 121 4 -32 12 -96 17 -143 11 -96 -4 -856 -22
-1099 -10 -131 -14 -150 -45 -214 -41 -87 -44 -138 -10 -205 54 -107 69 -192
76 -417 5 -202 7 -212 33 -266 15 -31 27 -67 27 -80 0 -13 4 -30 8 -37 26 -41
216 -37 290 5 23 14 48 35 54 47 6 11 14 23 17 26 19 16 51 72 51 90 0 12 -11
42 -25 68 -18 35 -25 62 -25 105 0 62 -17 112 -95 287 -62 138 -97 274 -87
332 5 25 7 70 4 101 -3 34 4 107 18 184 21 122 39 202 164 728 73 306 123 557
136 685 7 59 10 215 8 360 l-3 255 38 220 c47 269 62 331 137 560 32 99 82
261 110 360 28 99 74 252 101 340 68 218 122 428 165 652 35 176 37 201 38
383 1 128 -4 219 -13 265 -23 118 -68 246 -115 325 -43 72 -174 243 -318 415
-274 328 -278 335 -278 455 0 37 18 162 40 278 21 116 44 271 50 344 14 175
35 278 70 349 57 113 130 143 393 164 165 13 449 48 487 60 8 2 77 13 152 24
154 22 396 82 475 116 71 32 143 99 143 135 0 30 -15 52 -110 159 -133 152
-251 245 -592 470 -180 119 -354 233 -388 254 -82 52 -105 101 -130 279 -8 53
-8 99 -1 150 9 68 7 95 -14 165 -6 18 -2 25 19 33 45 17 31 33 -24 28 l-51 -5
22 24 c13 13 40 28 60 33 43 12 57 26 40 43 -6 6 -11 21 -11 34 0 36 -69 32
-147 -9 -34 -18 -64 -30 -68 -26 -3 3 -1 24 4 46 11 39 7 72 -9 72 -9 0 -70
-91 -97 -146 -13 -25 -22 -68 -26 -123 -6 -95 -27 -137 -27 -55 0 147 -225
414 -408 485 -48 18 -81 22 -202 24 -176 4 -229 11 -485 70 -323 75 -448 94
-645 100 -96 2 -186 1 -199 -3z m632 -402 c103 0 187 -4 187 -9 0 -5 -19 -37
-41 -71 -48 -71 -129 -245 -129 -276 0 -12 -12 -53 -26 -90 -14 -38 -30 -98
-35 -134 -5 -36 -13 -81 -18 -100 -6 -19 -16 -56 -23 -82 -7 -27 -16 -48 -19
-48 -13 0 -67 75 -94 129 -21 42 -29 79 -41 199 -21 204 -54 351 -109 476 -8
18 -5 19 76 13 46 -4 168 -7 272 -7z m1336 -422 c6 -18 26 -98 46 -178 46
-185 89 -266 190 -353 91 -80 363 -335 439 -412 65 -66 136 -152 136 -165 0
-4 -28 -11 -62 -15 -35 -3 -116 -15 -180 -26 -131 -22 -143 -20 -296 31 -134
45 -232 55 -372 40 -194 -22 -200 -22 -200 1 0 10 4 19 8 19 11 0 34 49 27 60
-3 4 2 13 10 20 8 7 15 21 15 32 0 10 7 33 16 50 10 19 13 40 9 57 -32 126
-35 228 -8 276 6 10 8 44 6 76 -5 45 -1 66 16 101 11 25 21 49 21 54 0 6 15
28 34 50 47 55 80 141 111 287 7 36 21 34 34 -5z m-901 -8398 c2 -24 0 -55 -4
-69 -6 -22 -9 -17 -19 34 -12 64 -10 88 9 82 6 -2 12 -23 14 -47z"/>
</g>
</svg>
